<?xml version="1.0" standalone="no"?>
<!DOCTYPE svg PUBLIC "-//W3C//DTD SVG 20010904//EN"
 "http://www.w3.org/TR/2001/REC-SVG-20010904/DTD/svg10.dtd">
<svg version="1.0" xmlns="http://www.w3.org/2000/svg"
 width="2000.000000pt" height="2000.000000pt" viewBox="0 0 2000.000000 2000.000000"
 preserveAspectRatio="xMidYMid meet">
<metadata>
Created by potrace 1.11, written by Peter Selinger 2001-2013
</metadata>
<g transform="translate(0.000000,2000.000000) scale(0.100000,-0.100000)"
fill="#000000" stroke="none">
<path d="M9887 16224 c-1 -1 -78 -4 -172 -8 -166 -7 -196 -8 -320 -21 -71 -7
-220 -24 -255 -30 -14 -2 -43 -6 -65 -10 -23 -3 -50 -7 -60 -9 -11 -2 -54 -9
-95 -16 -207 -33 -549 -118 -785 -193 -270 -87 -422 -144 -650 -245 -1117
-491 -2080 -1319 -2737 -2352 -392 -617 -701 -1374 -837 -2050 -6 -30 -14 -66
-16 -80 -3 -14 -16 -88 -30 -165 -24 -137 -27 -163 -40 -274 -4 -30 -8 -62
-10 -71 -2 -9 -6 -54 -10 -101 -4 -46 -8 -100 -10 -119 -18 -202 -24 -636 -10
-821 13 -191 26 -331 30 -349 2 -8 7 -44 10 -80 10 -107 54 -364 91 -540 144
-677 439 -1408 796 -1972 24 -37 61 -96 83 -130 112 -179 325 -460 505 -666
948 -1092 2245 -1820 3675 -2061 139 -24 412 -57 535 -66 47 -3 117 -8 155
-11 99 -8 574 -8 675 0 47 4 117 9 155 12 97 6 158 13 325 34 550 71 1182 248
1690 475 870 387 1623 950 2245 1678 216 254 515 682 650 932 21 39 41 75 46
80 21 28 175 340 239 485 208 472 352 946 439 1445 31 175 36 210 46 305 3 30
8 66 10 80 5 32 12 107 31 347 8 106 8 550 0 673 -15 225 -23 304 -52 515 -77
576 -235 1134 -472 1670 -61 140 -189 398 -242 490 -12 22 -34 60 -48 85 -39
72 -60 107 -151 250 -371 586 -865 1131 -1423 1567 -574 449 -1239 798 -1953
1027 -127 41 -348 103 -408 116 -23 4 -105 22 -182 38 -173 38 -358 70 -510
88 -33 4 -67 8 -75 9 -8 2 -53 6 -100 10 -47 4 -95 8 -107 10 -57 9 -597 26
-606 19z"/>
</g>
</svg>
